<svg width="247" height="333" viewBox="0 0 247 333" fill="none" xmlns="http://www.w3.org/2000/svg">
<path fill-rule="evenodd" clip-rule="evenodd" d="M0.239248 332.751V328.872C0.239248 330.614 0.312865 330.614 2.43185 331.167C5.13579 328.951 3.16205 315.177 2.79695 314.622C1.70065 314.622 0.970446 315.018 0.385488 315.098C0.312866 314.386 0.239248 313.752 0.239248 313.119C5.13579 313.119 4.11211 308.923 0.166626 308.527C0.239248 307.973 0.239248 307.419 0.312866 306.944C0.970446 306.866 1.70065 306.786 2.43185 306.706C4.91593 302.116 5.42727 295.624 0.239248 295.624C0.239248 293.013 0.312866 290.401 0.385488 287.788C4.25835 287.788 -1.36839 294.2 10.6889 293.25C12.3702 291.904 12.3702 275.993 10.3238 274.885C6.96229 274.727 3.60077 274.647 0.239248 274.569V272.59C14.6354 273.856 11.2739 273.064 11.2739 255.807C12.7353 254.224 14.2693 256.203 15.9505 253.75C16.6081 246.308 23.4038 255.887 23.9887 246.071C25.9615 240.768 48.3948 243.301 54.3141 244.092C58.4794 247.733 51.1714 298.158 58.552 288.184C60.3795 281.455 61.1226 286.759 64.6304 286.126C66.9812 277.827 73.0158 212.79 74.0176 205.095C65.8331 205.095 57.1632 197.625 51.0261 199.288C43.2794 199.605 37.9452 201.9 31.0769 204.829C23.55 204.987 15.5118 206.333 8.42369 207.362C6.15847 208.312 2.57809 209.974 0.239248 210.767C0.239248 210.133 0.239248 208.219 0.312866 207.586C3.08943 206.795 6.01223 205.528 8.86241 203.945C15.6581 202.52 28.738 204.183 34.1459 200.066C45.2532 197.691 49.2723 192.783 61.4748 198.879C63.5212 199.274 73.2565 203.248 74.3528 201.585C75.1746 194.483 76.7733 176.971 73.9042 157.681C70.7168 136.243 65.9376 114.39 64.0156 107.216C61.239 89.1684 57.0578 97.0951 45.3666 89.9713C42.7353 87.8338 41.3554 87.2914 41.063 85.4703C42.9631 83.2543 44.0813 83.6869 45.7585 81.2524C45.7585 75.5525 22.594 75.5525 38.743 68.5869C40.5705 67.375 42.4279 66.3741 42.9044 64.9857C43.9529 61.9323 42.7959 58.0556 48.3162 56.7404C52.7731 53.8904 69.5866 52.5451 69.5866 46.9248C68.4177 45.0499 68.4545 43.8058 68.7758 42.4098C68.8495 42.0869 70.1119 41.7049 70.2044 41.3562C70.4482 40.4456 70.7565 39.4695 70.8322 38.2447C74.705 35.0783 75.1398 39.2456 75.1398 32.8332C76.9663 30.855 80.4382 28.8477 82.1185 25.2056C82.776 16.419 82.6935 9.42429 83.4237 1.1919C89.8542 -5.77372 89.6801 24.9021 90.2651 27.5928C94.6493 30.4428 94.7965 29.5086 96.2579 36.6335C97.7193 39.0077 99.327 35.8413 99.5468 42.1741C99.8682 42.4453 101.171 42.1171 101.171 42.4647C101.167 44.9993 100.506 47.0077 100.883 48.283C101.694 48.692 102.128 49.2215 104.37 49.694C110.142 52.1479 118.933 53.7311 124.487 58.2439C124.651 60.6483 123.86 63.0968 125.584 65.0223C129.41 67.6118 134.718 70.6447 137.641 73.81C137.438 74.9961 132.151 76.237 128.874 78.4358C126.243 80.202 124.78 82.9831 129.236 83.8635C133.475 88.4548 112.261 96.6926 110.434 96.7712C107.893 97.6903 103.847 128.986 102.511 136.522C100.648 147.75 97.3781 187.567 100.27 203.198C103.321 204.29 105.235 203.495 106.926 204.267C118.326 207.355 110.434 209.936 114.161 203.84C116.572 202.098 134.84 203.286 140.102 204.711C142.111 206.146 144.684 211.667 144.804 211.087C144.947 210.399 174.38 198.564 179.562 200.072L200.066 202.374L200.52 203.934C200.52 205.66 178.626 203.27 176.083 203.637C172.649 204.27 145.379 212.923 144.867 215.378L144.414 247.416L157.494 256.519L158.151 228.339C161.294 226.676 180.293 226.28 181.389 229.922C181.608 273.934 179.928 279.396 182.851 280.979C184.238 280.821 198.541 280.663 199.93 280.583L200.295 202.612C206.725 197.387 208.114 206.49 207.749 191.133C209.283 184.8 214.617 181.555 216.956 176.41C217.394 166.198 226.382 166.752 227.551 175.301C230.109 180.527 236.028 186.7 236.978 193.191C235.954 205.936 236.686 198.1 245.454 201.899C246.332 206.516 247.135 281.785 245.674 285.603C245.163 285.846 244.431 286.066 243.846 285.764L243.773 204.712L237.416 205.741C236.319 210.227 238.44 290.731 235.663 291.3L234.932 203.719L226.602 203.482C222.802 223.275 232.448 294.113 225.36 300.887L223.837 206.965L219.818 206.174L219.733 220.818C219.805 282.325 222.363 278.287 219.368 288.104C218.783 287.39 218.783 287.39 218.052 286.996C216.152 289.053 218.71 298.473 216.518 300.848C215.275 298.078 217.979 277.496 213.449 282.404C212.645 286.045 214.91 304.411 212.133 305.914C211.037 304.727 211.621 250.107 211.621 245.516C212.352 243.853 215.349 244.487 217.321 245.2L217.248 203.324L210.16 202.928L209.737 221.878C209.012 228.629 212.645 296.178 209.648 309.161C209.283 309.556 209.283 309.636 208.698 309.636L207.164 204.872L202.488 206.297C206.315 391.655 180.731 292.695 181.534 290.954C184.531 289.292 184.238 284.225 182.338 282.722C175.877 286.271 181.06 277.984 171.309 286.742C134.962 321.15 234.944 327.506 124.538 315.098C123.368 315.889 122.784 317.156 121.688 318.027L63.5212 318.501C61.6947 317.868 60.7446 318.027 59.6483 318.264C58.552 320.084 58.6983 320.797 58.552 323.647C57.9671 324.043 57.9671 324.043 57.4557 324.043C56.3604 322.856 57.5293 314.544 56.6519 312.564C54.3469 310.069 21.8051 312.995 29.525 309.25H50.7267C50.7745 309.356 50.8262 309.458 50.8799 309.556C59.7209 309.556 49.9298 286.997 53.4366 283.196C53.4366 274.015 55.1905 252.799 52.779 246.23C48.9062 244.884 26.8379 243.775 25.5964 247.179C25.669 272.352 25.8152 298.079 25.5228 324.043C25.3765 324.281 25.2303 324.518 25.1577 324.834C21.1386 318.581 27.9342 298.158 22.8924 296.02C-0.125854 292.695 6.15847 293.25 4.91593 315.969C5.20841 319.531 3.81963 328.634 6.59719 331.642C9.81247 331.801 9.81247 331.801 9.73885 331.959C7.47363 331.959 1.04307 332.355 0.239248 332.751Z" fill="#231F20"/>
</svg>
